<svg width="587" height="164" viewBox="0 0 587 164" fill="none" xmlns="http://www.w3.org/2000/svg">
<path d="M182.84 30.02C187.273 30.02 190.983 30.44 193.97 31.28C197.003 32.0733 199.267 33.4033 200.76 35.27C202.3 37.09 203.07 39.5633 203.07 42.69C203.07 44.5567 202.767 46.26 202.16 47.8C201.553 49.34 200.667 50.6 199.5 51.58C198.38 52.56 197.003 53.19 195.37 53.47V53.82C197.05 54.1467 198.567 54.73 199.92 55.57C201.273 56.41 202.347 57.6233 203.14 59.21C203.933 60.7967 204.33 62.8967 204.33 65.51C204.33 68.5433 203.583 71.1567 202.09 73.35C200.643 75.4967 198.543 77.1533 195.79 78.32C193.037 79.44 189.77 80 185.99 80H167.3V30.02H182.84ZM184.03 49.83C187.11 49.83 189.233 49.34 190.4 48.36C191.613 47.38 192.22 45.9567 192.22 44.09C192.22 42.1767 191.52 40.8 190.12 39.96C188.72 39.12 186.503 38.7 183.47 38.7H177.87V49.83H184.03ZM177.87 58.23V71.25H184.8C187.973 71.25 190.19 70.6433 191.45 69.43C192.71 68.17 193.34 66.5133 193.34 64.46C193.34 63.2 193.06 62.1033 192.5 61.17C191.987 60.2367 191.077 59.5133 189.77 59C188.463 58.4867 186.69 58.23 184.45 58.23H177.87ZM259.691 54.94C259.691 58.8133 259.201 62.3367 258.221 65.51C257.288 68.6367 255.841 71.3433 253.881 73.63C251.968 75.9167 249.495 77.6667 246.461 78.88C243.475 80.0933 239.951 80.7 235.891 80.7C231.831 80.7 228.285 80.0933 225.251 78.88C222.265 77.62 219.791 75.87 217.831 73.63C215.918 71.3433 214.471 68.6133 213.491 65.44C212.558 62.2667 212.091 58.7433 212.091 54.87C212.091 49.69 212.931 45.1867 214.611 41.36C216.338 37.5333 218.951 34.57 222.451 32.47C225.998 30.3233 230.501 29.25 235.961 29.25C241.375 29.25 245.831 30.3233 249.331 32.47C252.831 34.57 255.421 37.5567 257.101 41.43C258.828 45.2567 259.691 49.76 259.691 54.94ZM223.221 54.94C223.221 58.44 223.665 61.45 224.551 63.97C225.438 66.49 226.815 68.4267 228.681 69.78C230.548 71.1333 232.951 71.81 235.891 71.81C238.925 71.81 241.351 71.1333 243.171 69.78C245.038 68.4267 246.391 66.49 247.231 63.97C248.118 61.45 248.561 58.44 248.561 54.94C248.561 49.6667 247.581 45.5367 245.621 42.55C243.661 39.5633 240.441 38.07 235.961 38.07C232.975 38.07 230.548 38.7467 228.681 40.1C226.815 41.4533 225.438 43.39 224.551 45.91C223.665 48.43 223.221 51.44 223.221 54.94ZM315.404 54.94C315.404 58.8133 314.914 62.3367 313.934 65.51C313.001 68.6367 311.554 71.3433 309.594 73.63C307.681 75.9167 305.207 77.6667 302.174 78.88C299.187 80.0933 295.664 80.7 291.604 80.7C287.544 80.7 283.997 80.0933 280.964 78.88C277.977 77.62 275.504 75.87 273.544 73.63C271.631 71.3433 270.184 68.6133 269.204 65.44C268.271 62.2667 267.804 58.7433 267.804 54.87C267.804 49.69 268.644 45.1867 270.324 41.36C272.051 37.5333 274.664 34.57 278.164 32.47C281.711 30.3233 286.214 29.25 291.674 29.25C297.087 29.25 301.544 30.3233 305.044 32.47C308.544 34.57 311.134 37.5567 312.814 41.43C314.541 45.2567 315.404 49.76 315.404 54.94ZM278.934 54.94C278.934 58.44 279.377 61.45 280.264 63.97C281.151 66.49 282.527 68.4267 284.394 69.78C286.261 71.1333 288.664 71.81 291.604 71.81C294.637 71.81 297.064 71.1333 298.884 69.78C300.751 68.4267 302.104 66.49 302.944 63.97C303.831 61.45 304.274 58.44 304.274 54.94C304.274 49.6667 303.294 45.5367 301.334 42.55C299.374 39.5633 296.154 38.07 291.674 38.07C288.687 38.07 286.261 38.7467 284.394 40.1C282.527 41.4533 281.151 43.39 280.264 45.91C279.377 48.43 278.934 51.44 278.934 54.94ZM365.937 80H353.897L340.807 58.93L336.327 62.15V80H325.757V30.02H336.327V52.91C337.027 51.93 337.727 50.95 338.427 49.97C339.127 48.99 339.827 48.01 340.527 47.03L354.037 30.02H365.797L348.367 52.14L365.937 80ZM382.671 80H372.241V30.02H400.871V38.7H382.671V51.58H399.611V60.26H382.671V80ZM429.349 80H406.599V73.98L412.689 71.18V38.84L406.599 36.04V30.02H429.349V36.04L423.259 38.84V71.18L429.349 73.98V80ZM482.176 80H468.736L446.966 42.2H446.686C446.733 43.3667 446.78 44.5567 446.826 45.77C446.873 46.9367 446.92 48.1267 446.966 49.34C447.06 50.5067 447.13 51.6967 447.176 52.91C447.223 54.0767 447.27 55.2667 447.316 56.48V80H437.866V30.02H451.236L472.936 67.47H473.146C473.1 66.3033 473.053 65.16 473.006 64.04C472.96 62.8733 472.913 61.73 472.866 60.61C472.866 59.4433 472.843 58.3 472.796 57.18C472.75 56.0133 472.703 54.8467 472.656 53.68V30.02H482.176V80ZM536.25 54.52C536.25 60.12 535.176 64.81 533.03 68.59C530.883 72.37 527.756 75.2167 523.65 77.13C519.59 79.0433 514.69 80 508.95 80H494.81V30.02H510.49C515.716 30.02 520.243 30.9533 524.07 32.82C527.943 34.6867 530.93 37.44 533.03 41.08C535.176 44.6733 536.25 49.1533 536.25 54.52ZM525.26 54.8C525.26 51.1133 524.723 48.08 523.65 45.7C522.576 43.32 520.966 41.57 518.82 40.45C516.72 39.2833 514.13 38.7 511.05 38.7H505.38V71.25H509.93C515.11 71.25 518.96 69.8733 521.48 67.12C524 64.3667 525.26 60.26 525.26 54.8ZM561.186 30.02C565.713 30.02 569.446 30.58 572.386 31.7C575.326 32.7733 577.52 34.43 578.966 36.67C580.413 38.8633 581.136 41.64 581.136 45C581.136 47.2867 580.693 49.2933 579.806 51.02C578.966 52.7 577.823 54.1467 576.376 55.36C574.976 56.5267 573.46 57.4833 571.826 58.23L586.526 80H574.766L562.866 60.82H557.196V80H546.626V30.02H561.186ZM560.416 38.7H557.196V52.21H560.626C562.96 52.21 564.85 51.9533 566.296 51.44C567.743 50.9267 568.793 50.1567 569.446 49.13C570.1 48.0567 570.426 46.7733 570.426 45.28C570.426 43.6933 570.053 42.4333 569.306 41.5C568.606 40.52 567.51 39.82 566.016 39.4C564.57 38.9333 562.703 38.7 560.416 38.7Z" fill="black"/>
<path d="M201.32 141.4C200.877 141.4 200.468 141.365 200.095 141.295C199.722 141.225 199.383 141.143 199.08 141.05V138.46C199.407 138.553 199.722 138.635 200.025 138.705C200.328 138.798 200.667 138.845 201.04 138.845C201.88 138.845 202.533 138.495 203 137.795C203.467 137.118 203.84 136.138 204.12 134.855L207.97 116.585H204.715L204.96 115.29L208.46 114.135L208.845 112.455C209.125 111.265 209.452 110.273 209.825 109.48C210.198 108.663 210.63 108.022 211.12 107.555C211.633 107.065 212.228 106.727 212.905 106.54C213.582 106.33 214.352 106.225 215.215 106.225C215.798 106.225 216.393 106.295 217 106.435C217.63 106.552 218.132 106.703 218.505 106.89L217.7 109.235C217.373 109.118 217.012 109.013 216.615 108.92C216.242 108.803 215.822 108.745 215.355 108.745C214.445 108.745 213.722 109.002 213.185 109.515C212.672 110.028 212.252 111.008 211.925 112.455L211.505 114.24H215.53L215.075 116.585H211.05L207.13 135.205C206.85 136.488 206.465 137.597 205.975 138.53C205.508 139.463 204.89 140.175 204.12 140.665C203.373 141.155 202.44 141.4 201.32 141.4ZM215.11 133L219.1 114.24H222.18L218.19 133H215.11ZM221.585 111.125C221.095 111.125 220.687 110.985 220.36 110.705C220.057 110.402 219.905 109.993 219.905 109.48C219.905 109.083 219.987 108.722 220.15 108.395C220.313 108.045 220.547 107.765 220.85 107.555C221.153 107.345 221.527 107.24 221.97 107.24C222.507 107.24 222.903 107.38 223.16 107.66C223.44 107.94 223.58 108.325 223.58 108.815C223.58 109.538 223.37 110.11 222.95 110.53C222.53 110.927 222.075 111.125 221.585 111.125ZM224.006 133L228.031 114.135H230.761L230.376 117.6H230.411C230.854 117.017 231.368 116.433 231.951 115.85C232.558 115.267 233.258 114.777 234.051 114.38C234.844 113.983 235.743 113.785 236.746 113.785C237.749 113.785 238.613 113.972 239.336 114.345C240.059 114.718 240.608 115.255 240.981 115.955C241.378 116.655 241.576 117.507 241.576 118.51C241.576 119.047 241.529 119.595 241.436 120.155C241.366 120.715 241.284 121.205 241.191 121.625L238.706 133H235.416L237.936 121.205C238.053 120.668 238.134 120.225 238.181 119.875C238.251 119.502 238.286 119.152 238.286 118.825C238.286 118.078 238.088 117.518 237.691 117.145C237.294 116.772 236.699 116.585 235.906 116.585C235.136 116.585 234.296 116.853 233.386 117.39C232.499 117.927 231.659 118.802 230.866 120.015C230.096 121.228 229.489 122.862 229.046 124.915L227.296 133H224.006ZM250.19 133.35C249.186 133.35 248.3 133.117 247.53 132.65C246.783 132.16 246.188 131.448 245.745 130.515C245.325 129.558 245.115 128.368 245.115 126.945C245.115 125.568 245.243 124.238 245.5 122.955C245.78 121.672 246.176 120.493 246.69 119.42C247.226 118.323 247.868 117.367 248.615 116.55C249.385 115.71 250.236 115.068 251.17 114.625C252.126 114.158 253.176 113.925 254.32 113.925C255.16 113.925 255.883 114.077 256.49 114.38C257.096 114.683 257.61 115.08 258.03 115.57C258.45 116.037 258.788 116.562 259.045 117.145H259.22C259.29 116.608 259.36 116.095 259.43 115.605C259.5 115.115 259.581 114.625 259.675 114.135C259.768 113.622 259.873 113.085 259.99 112.525L261.285 106.4H264.33L258.695 133H256.175L256.56 129.535H256.42C255.86 130.235 255.265 130.877 254.635 131.46C254.005 132.043 253.328 132.51 252.605 132.86C251.881 133.187 251.076 133.35 250.19 133.35ZM251.24 130.795C251.753 130.795 252.278 130.667 252.815 130.41C253.351 130.153 253.865 129.792 254.355 129.325C254.868 128.835 255.346 128.263 255.79 127.61C256.233 126.957 256.618 126.245 256.945 125.475C257.295 124.682 257.563 123.853 257.75 122.99C257.936 122.103 258.03 121.193 258.03 120.26C258.03 119.14 257.75 118.23 257.19 117.53C256.653 116.83 255.766 116.48 254.53 116.48C253.783 116.48 253.083 116.678 252.43 117.075C251.8 117.448 251.228 117.985 250.715 118.685C250.201 119.362 249.758 120.155 249.385 121.065C249.035 121.952 248.755 122.908 248.545 123.935C248.358 124.938 248.265 125.965 248.265 127.015C248.265 128.275 248.51 129.22 249 129.85C249.513 130.48 250.26 130.795 251.24 130.795ZM271.92 141.4C271.36 141.4 270.905 141.365 270.555 141.295C270.182 141.225 269.832 141.143 269.505 141.05V138.565C269.832 138.658 270.182 138.728 270.555 138.775C270.928 138.845 271.325 138.88 271.745 138.88C272.702 138.88 273.507 138.588 274.16 138.005C274.837 137.422 275.478 136.57 276.085 135.45L277.31 133.28L274.475 114.24H277.555L278.78 123.515C278.897 124.262 278.978 125.09 279.025 126C279.095 126.887 279.142 127.738 279.165 128.555C279.212 129.348 279.235 129.99 279.235 130.48H279.34C279.503 130.107 279.737 129.547 280.04 128.8C280.367 128.053 280.717 127.283 281.09 126.49C281.463 125.697 281.79 125.043 282.07 124.53L287.53 114.24H290.82L278.92 136.15C278.29 137.317 277.648 138.285 276.995 139.055C276.342 139.848 275.607 140.432 274.79 140.805C273.973 141.202 273.017 141.4 271.92 141.4ZM297.813 133.28C296.366 133.28 295.118 132.988 294.068 132.405C293.018 131.822 292.213 130.993 291.653 129.92C291.093 128.823 290.813 127.54 290.813 126.07C290.813 124.927 290.941 123.783 291.198 122.64C291.454 121.473 291.828 120.377 292.318 119.35C292.831 118.323 293.461 117.413 294.208 116.62C294.954 115.803 295.829 115.162 296.833 114.695C297.836 114.228 298.956 113.995 300.193 113.995C301.663 113.995 302.911 114.287 303.938 114.87C304.988 115.453 305.793 116.293 306.353 117.39C306.913 118.463 307.193 119.747 307.193 121.24C307.193 122.383 307.064 123.527 306.808 124.67C306.551 125.813 306.166 126.91 305.653 127.96C305.163 128.987 304.544 129.897 303.798 130.69C303.051 131.483 302.176 132.113 301.173 132.58C300.169 133.047 299.049 133.28 297.813 133.28ZM297.988 130.725C298.664 130.725 299.294 130.585 299.878 130.305C300.484 130.025 301.044 129.617 301.558 129.08C302.071 128.52 302.503 127.843 302.853 127.05C303.226 126.233 303.518 125.312 303.728 124.285C303.938 123.258 304.043 122.127 304.043 120.89C304.043 120.19 303.914 119.513 303.658 118.86C303.424 118.183 303.028 117.635 302.468 117.215C301.908 116.772 301.161 116.55 300.228 116.55C299.458 116.55 298.746 116.713 298.093 117.04C297.439 117.367 296.856 117.833 296.343 118.44C295.829 119.023 295.386 119.723 295.013 120.54C294.663 121.333 294.394 122.208 294.208 123.165C294.021 124.122 293.928 125.125 293.928 126.175C293.928 127.622 294.278 128.742 294.978 129.535C295.701 130.328 296.704 130.725 297.988 130.725ZM315.469 133.35C314.536 133.35 313.708 133.175 312.984 132.825C312.284 132.475 311.736 131.95 311.339 131.25C310.966 130.55 310.779 129.698 310.779 128.695C310.779 128.158 310.814 127.657 310.884 127.19C310.978 126.7 311.071 126.198 311.164 125.685L313.614 114.24H316.729L314.209 126.035C314.116 126.548 314.034 126.992 313.964 127.365C313.918 127.738 313.894 128.077 313.894 128.38C313.894 129.127 314.081 129.722 314.454 130.165C314.851 130.585 315.481 130.795 316.344 130.795C317.138 130.795 317.989 130.515 318.899 129.955C319.833 129.395 320.696 128.497 321.489 127.26C322.283 126.023 322.901 124.378 323.344 122.325L325.059 114.24H328.104L324.114 133H321.594L321.979 129.535H321.804C321.361 130.095 320.836 130.678 320.229 131.285C319.646 131.868 318.958 132.358 318.164 132.755C317.394 133.152 316.496 133.35 315.469 133.35ZM330.103 133L334.093 114.24H336.613L336.228 117.705H336.403C336.893 117.052 337.406 116.445 337.943 115.885C338.48 115.302 339.086 114.823 339.763 114.45C340.44 114.077 341.221 113.89 342.108 113.89C342.435 113.89 342.773 113.913 343.123 113.96C343.496 113.983 343.835 114.042 344.138 114.135L343.473 116.9C343.17 116.83 342.866 116.783 342.563 116.76C342.283 116.713 341.991 116.69 341.688 116.69C340.825 116.69 340.02 116.923 339.273 117.39C338.55 117.833 337.896 118.428 337.313 119.175C336.753 119.922 336.275 120.75 335.878 121.66C335.481 122.57 335.19 123.492 335.003 124.425L333.183 133H330.103ZM353 133L357.025 114.135H359.755L359.37 117.6H359.405C359.848 117.017 360.362 116.433 360.945 115.85C361.552 115.267 362.252 114.777 363.045 114.38C363.838 113.983 364.737 113.785 365.74 113.785C366.743 113.785 367.607 113.972 368.33 114.345C369.053 114.718 369.602 115.255 369.975 115.955C370.372 116.655 370.57 117.507 370.57 118.51C370.57 119.047 370.523 119.595 370.43 120.155C370.36 120.715 370.278 121.205 370.185 121.625L367.7 133H364.41L366.93 121.205C367.047 120.668 367.128 120.225 367.175 119.875C367.245 119.502 367.28 119.152 367.28 118.825C367.28 118.078 367.082 117.518 366.685 117.145C366.288 116.772 365.693 116.585 364.9 116.585C364.13 116.585 363.29 116.853 362.38 117.39C361.493 117.927 360.653 118.802 359.86 120.015C359.09 121.228 358.483 122.862 358.04 124.915L356.29 133H353ZM380.899 133.35C379.452 133.35 378.215 133.07 377.189 132.51C376.185 131.927 375.415 131.11 374.879 130.06C374.365 128.987 374.109 127.727 374.109 126.28C374.109 124.787 374.319 123.317 374.739 121.87C375.182 120.4 375.812 119.07 376.629 117.88C377.445 116.667 378.425 115.698 379.569 114.975C380.735 114.252 382.042 113.89 383.489 113.89C385.262 113.89 386.592 114.275 387.479 115.045C388.389 115.815 388.844 116.888 388.844 118.265C388.844 119.175 388.634 120.038 388.214 120.855C387.794 121.648 387.14 122.348 386.254 122.955C385.367 123.562 384.235 124.04 382.859 124.39C381.482 124.717 379.825 124.88 377.889 124.88H377.294C377.27 125.09 377.247 125.312 377.224 125.545C377.224 125.778 377.224 125.988 377.224 126.175C377.224 127.598 377.574 128.73 378.274 129.57C378.974 130.387 380.035 130.795 381.459 130.795C382.345 130.795 383.185 130.667 383.979 130.41C384.772 130.153 385.635 129.803 386.569 129.36V131.985C385.682 132.382 384.807 132.708 383.944 132.965C383.104 133.222 382.089 133.35 380.899 133.35ZM377.994 122.395C379.394 122.395 380.689 122.278 381.879 122.045C383.069 121.788 384.025 121.38 384.749 120.82C385.472 120.237 385.834 119.467 385.834 118.51C385.834 117.903 385.624 117.413 385.204 117.04C384.807 116.643 384.177 116.445 383.314 116.445C382.567 116.445 381.832 116.678 381.109 117.145C380.385 117.612 379.732 118.288 379.149 119.175C378.565 120.062 378.099 121.135 377.749 122.395H377.994ZM388.6 133L396.72 123.34L392.66 114.24H395.775L398.68 121.17L404.175 114.24H407.745L399.94 123.48L404.245 133H401.13L397.945 125.72L392.17 133H388.6ZM413.288 133.35C412.028 133.35 410.967 133.047 410.103 132.44C409.24 131.833 408.808 130.772 408.808 129.255C408.808 128.905 408.832 128.52 408.878 128.1C408.948 127.657 409.03 127.213 409.123 126.77L411.258 116.585H408.353L408.633 115.185L411.783 113.855L413.953 109.97H415.773L414.828 114.24H419.553L419.063 116.585H414.373L412.203 126.805C412.133 127.108 412.063 127.458 411.993 127.855C411.923 128.228 411.888 128.578 411.888 128.905C411.888 129.442 412.028 129.897 412.308 130.27C412.612 130.643 413.09 130.83 413.743 130.83C414.163 130.83 414.572 130.795 414.968 130.725C415.365 130.632 415.785 130.515 416.228 130.375V132.72C415.948 132.86 415.517 133 414.933 133.14C414.35 133.28 413.802 133.35 413.288 133.35ZM436.941 133.35C436.101 133.35 435.366 133.198 434.736 132.895C434.106 132.592 433.581 132.195 433.161 131.705C432.741 131.215 432.403 130.69 432.146 130.13H431.971L430.816 133H428.506L434.141 106.4H437.221L435.891 112.7C435.728 113.493 435.541 114.275 435.331 115.045C435.145 115.792 434.981 116.422 434.841 116.935C434.701 117.425 434.62 117.693 434.596 117.74H434.736C435.296 117.04 435.88 116.41 436.486 115.85C437.116 115.267 437.793 114.8 438.516 114.45C439.263 114.1 440.068 113.925 440.931 113.925C441.958 113.925 442.856 114.17 443.626 114.66C444.396 115.127 444.991 115.838 445.411 116.795C445.855 117.728 446.076 118.895 446.076 120.295C446.076 121.648 445.936 122.967 445.656 124.25C445.4 125.533 445.015 126.735 444.501 127.855C443.988 128.952 443.358 129.908 442.611 130.725C441.865 131.542 441.013 132.183 440.056 132.65C439.123 133.117 438.085 133.35 436.941 133.35ZM436.696 130.795C437.443 130.795 438.131 130.608 438.761 130.235C439.415 129.838 439.998 129.302 440.511 128.625C441.025 127.925 441.456 127.132 441.806 126.245C442.18 125.335 442.46 124.378 442.646 123.375C442.833 122.348 442.926 121.31 442.926 120.26C442.926 119 442.67 118.055 442.156 117.425C441.666 116.795 440.931 116.48 439.951 116.48C439.438 116.48 438.913 116.608 438.376 116.865C437.84 117.122 437.315 117.495 436.801 117.985C436.288 118.452 435.81 119.012 435.366 119.665C434.923 120.318 434.526 121.042 434.176 121.835C433.85 122.605 433.593 123.433 433.406 124.32C433.22 125.183 433.126 126.082 433.126 127.015C433.126 128.135 433.418 129.045 434.001 129.745C434.585 130.445 435.483 130.795 436.696 130.795ZM456.475 133.28C455.028 133.28 453.78 132.988 452.73 132.405C451.68 131.822 450.875 130.993 450.315 129.92C449.755 128.823 449.475 127.54 449.475 126.07C449.475 124.927 449.603 123.783 449.86 122.64C450.117 121.473 450.49 120.377 450.98 119.35C451.493 118.323 452.123 117.413 452.87 116.62C453.617 115.803 454.492 115.162 455.495 114.695C456.498 114.228 457.618 113.995 458.855 113.995C460.325 113.995 461.573 114.287 462.6 114.87C463.65 115.453 464.455 116.293 465.015 117.39C465.575 118.463 465.855 119.747 465.855 121.24C465.855 122.383 465.727 123.527 465.47 124.67C465.213 125.813 464.828 126.91 464.315 127.96C463.825 128.987 463.207 129.897 462.46 130.69C461.713 131.483 460.838 132.113 459.835 132.58C458.832 133.047 457.712 133.28 456.475 133.28ZM456.65 130.725C457.327 130.725 457.957 130.585 458.54 130.305C459.147 130.025 459.707 129.617 460.22 129.08C460.733 128.52 461.165 127.843 461.515 127.05C461.888 126.233 462.18 125.312 462.39 124.285C462.6 123.258 462.705 122.127 462.705 120.89C462.705 120.19 462.577 119.513 462.32 118.86C462.087 118.183 461.69 117.635 461.13 117.215C460.57 116.772 459.823 116.55 458.89 116.55C458.12 116.55 457.408 116.713 456.755 117.04C456.102 117.367 455.518 117.833 455.005 118.44C454.492 119.023 454.048 119.723 453.675 120.54C453.325 121.333 453.057 122.208 452.87 123.165C452.683 124.122 452.59 125.125 452.59 126.175C452.59 127.622 452.94 128.742 453.64 129.535C454.363 130.328 455.367 130.725 456.65 130.725ZM476.197 133.28C474.75 133.28 473.502 132.988 472.452 132.405C471.402 131.822 470.597 130.993 470.037 129.92C469.477 128.823 469.197 127.54 469.197 126.07C469.197 124.927 469.325 123.783 469.582 122.64C469.838 121.473 470.212 120.377 470.702 119.35C471.215 118.323 471.845 117.413 472.592 116.62C473.338 115.803 474.213 115.162 475.217 114.695C476.22 114.228 477.34 113.995 478.577 113.995C480.047 113.995 481.295 114.287 482.322 114.87C483.372 115.453 484.177 116.293 484.737 117.39C485.297 118.463 485.577 119.747 485.577 121.24C485.577 122.383 485.448 123.527 485.192 124.67C484.935 125.813 484.55 126.91 484.037 127.96C483.547 128.987 482.928 129.897 482.182 130.69C481.435 131.483 480.56 132.113 479.557 132.58C478.553 133.047 477.433 133.28 476.197 133.28ZM476.372 130.725C477.048 130.725 477.678 130.585 478.262 130.305C478.868 130.025 479.428 129.617 479.942 129.08C480.455 128.52 480.887 127.843 481.237 127.05C481.61 126.233 481.902 125.312 482.112 124.285C482.322 123.258 482.427 122.127 482.427 120.89C482.427 120.19 482.298 119.513 482.042 118.86C481.808 118.183 481.412 117.635 480.852 117.215C480.292 116.772 479.545 116.55 478.612 116.55C477.842 116.55 477.13 116.713 476.477 117.04C475.823 117.367 475.24 117.833 474.727 118.44C474.213 119.023 473.77 119.723 473.397 120.54C473.047 121.333 472.778 122.208 472.592 123.165C472.405 124.122 472.312 125.125 472.312 126.175C472.312 127.622 472.662 128.742 473.362 129.535C474.085 130.328 475.088 130.725 476.372 130.725ZM488.183 133L493.818 106.4H496.933L494.658 116.97C494.262 118.837 493.912 120.283 493.608 121.31C493.328 122.313 493.13 122.978 493.013 123.305H493.083L501.973 114.24H505.613L497.563 122.29L502.568 133H499.173L495.218 124.215L492.698 126.21L491.298 133H488.183Z" fill="black"/>
<rect y="18" width="140.237" height="146" rx="35" fill="#826DFF"/>
<path d="M39.767 52.0579H20.2705C18.4845 52.0579 17.0211 53.5214 17.0211 55.3073V126.794C17.0211 128.58 18.4845 130.044 20.2705 130.044H39.767C41.5529 130.044 43.0164 128.58 43.0164 126.794V55.3073C43.0164 53.5214 41.5529 52.0579 39.767 52.0579ZM36.5175 71.5544H23.5199V65.0555H36.5175V71.5544Z" fill="white"/>
<path d="M72.2611 52.0579H52.7646C50.9787 52.0579 49.5152 53.5214 49.5152 55.3073V126.794C49.5152 128.58 50.9787 130.044 52.7646 130.044H72.2611C74.047 130.044 75.5105 128.58 75.5105 126.794V55.3073C75.5105 53.5214 74.047 52.0579 72.2611 52.0579ZM69.0117 71.5544H56.014V65.0555H69.0117V71.5544Z" fill="white"/>
<path d="M94.7093 57.0932L77.2965 65.8493C75.709 66.643 75.064 68.6274 75.8578 70.2149L105.078 128.233C105.871 129.821 107.856 130.466 109.443 129.672L126.856 120.891C128.444 120.097 129.089 118.113 128.295 116.525L99.0502 58.5319C98.2564 56.9196 96.2968 56.2747 94.7093 57.0932Z" fill="white"/>
</svg>
