<svg width="32" height="32" viewBox="0 0 32 32" fill="none" xmlns="http://www.w3.org/2000/svg">
<path d="M26.6666 14.6667C26.3406 12.3203 25.2521 10.1462 23.5688 8.47934C21.8856 6.81246 19.701 5.74524 17.3515 5.44209C15.0021 5.13893 12.6181 5.61666 10.5669 6.80168C8.51569 7.98669 6.91098 9.81326 5.99998 12M5.33331 6.66668V12H10.6666M5.33331 17.3333C5.65939 19.6797 6.74789 21.8538 8.43113 23.5207C10.1144 25.1876 12.299 26.2548 14.6484 26.5579C16.9979 26.8611 19.3818 26.3834 21.433 25.1984C23.4843 24.0133 25.089 22.1868 26 20M26.6666 25.3333V20H21.3333" stroke="black" stroke-width="2.66667" stroke-linecap="round" stroke-linejoin="round"/>
</svg>
